<svg width="34" height="34" viewBox="0 0 34 34" fill="none" xmlns="http://www.w3.org/2000/svg">
<path d="M16.7852 17.2219H16.7989" stroke="#F35003" stroke-width="2.75" stroke-linecap="round" stroke-linejoin="round"/>
<path d="M22.2852 8.97192V6.22192C22.2852 5.49258 21.9954 4.79311 21.4797 4.27738C20.964 3.76166 20.2645 3.47192 19.5352 3.47192H14.0352C13.3058 3.47192 12.6063 3.76166 12.0906 4.27738C11.5749 4.79311 11.2852 5.49258 11.2852 6.22192V8.97192" stroke="#F35003" stroke-width="2.75" stroke-linecap="round" stroke-linejoin="round"/>
<path d="M30.5352 18.5969C26.4552 21.2905 21.674 22.7265 16.7852 22.7265C11.8963 22.7265 7.11507 21.2905 3.03516 18.5969" stroke="#F35003" stroke-width="2.75" stroke-linecap="round" stroke-linejoin="round"/>
<path d="M27.7852 8.97192H5.78516C4.26637 8.97192 3.03516 10.2031 3.03516 11.7219V25.4719C3.03516 26.9907 4.26637 28.2219 5.78516 28.2219H27.7852C29.3039 28.2219 30.5352 26.9907 30.5352 25.4719V11.7219C30.5352 10.2031 29.3039 8.97192 27.7852 8.97192Z" stroke="#F35003" stroke-width="2.75" stroke-linecap="round" stroke-linejoin="round"/>
</svg>
